<svg xmlns="http://www.w3.org/2000/svg" xmlns:xlink="http://www.w3.org/1999/xlink" viewBox="0,0,256,256" width="64px" height="64px"><g fill-opacity="0" fill="#dddddd" fill-rule="nonzero" stroke="none" stroke-width="1" stroke-linecap="butt" stroke-linejoin="miter" stroke-miterlimit="10" stroke-dasharray="" stroke-dashoffset="0" font-family="none" font-weight="none" font-size="none" text-anchor="none" style="mix-blend-mode: normal"><path d="M0,256v-256h256v256z" id="bgRectangle"></path></g><g fill="none" fill-rule="nonzero" stroke="none" stroke-width="1" stroke-linecap="butt" stroke-linejoin="miter" stroke-miterlimit="10" stroke-dasharray="" stroke-dashoffset="0" font-family="none" font-weight="none" font-size="none" text-anchor="none" style="mix-blend-mode: normal"><g><path d="M239.98,97.343l-12.439,-11.789l-6.853,13.11l4.473,9.312c0.416,0.867 1.223,1.481 2.169,1.653l7.19,1.302c1.463,0.265 2.9,-0.582 3.376,-1.991l2.861,-8.458c0.376,-1.108 0.072,-2.334 -0.777,-3.139z" fill="#f9cfcf"></path><path d="M29.727,71.493v0l-13.328,9.042c-0.99,0.671 -1.486,1.866 -1.263,3.041l1.713,9.043c0.191,1.01 0.887,1.852 1.842,2.231l6.47,2.563c1.25,0.495 2.676,0.099 3.491,-0.97l6.75,-8.855z" fill="#f9cfcf"></path><path d="M225.961,206.858c-4.387,1.562 -9.8,3.721 -18.122,4.449c-3.419,0.299 -145.368,12.718 -142.971,12.508c-9.74,0.852 -19.615,-1.403 -18.615,-1.234c-3.907,-0.661 -7.569,2.092 -8.018,6.03v0c-0.426,3.736 2.217,7.127 5.943,7.631c7.309,0.989 13.235,2.056 22.311,1.262c3.399,-0.297 144.514,-12.643 142.131,-12.435c5.241,-0.458 10.414,-1.497 15.425,-3.097l6.332,-2.021c3.582,-1.143 5.592,-4.941 4.524,-8.546v0c-1.127,-3.8 -5.207,-5.877 -8.94,-4.547z" fill="#197512"></path><circle cx="78.954" cy="244.848" r="8.402" fill="#00ca29"></circle><circle cx="197.618" cy="234.466" r="8.402" fill="#00ca29"></circle><path d="M187.273,61.544c-23.139,-7.095 -25.52,-8.284 -32.621,-8.284c-56.871,0 -53.188,-0.05 -54.933,0.118l-25.487,2.454c-2.213,0.213 -4.397,0.717 -6.48,1.493c-21.499,8.008 -32.355,12.06 -38.025,14.168l6.644,18.84l37.392,-10.822h27.934l1.091,37.887h27.425h0.77h27.425l1.063,-36.911l29.193,5.067l30.096,16.801l8.782,-16.801l-31.172,-19.817c-2.831,-1.799 -5.89,-3.21 -9.097,-4.193z" fill="#eaf40e"></path><path d="M105.929,220.223v-5.557l-2.881,-9.062l-17.466,1.422l-12.882,6.204c-2.076,1 -3.396,3.101 -3.396,5.406v4.79z" fill="#ffffff"></path><path d="M190.156,197.18l-4.674,-46.497c-0.144,-1.433 -0.726,-2.786 -1.668,-3.876l-25.406,-29.408h-27.425v0h-28.195l-21.086,39.444c-0.543,1.015 -0.827,2.149 -0.827,3.3v47.267l25.054,-2.04v-44.161l25.054,-24.92l29.272,21.15l2.818,42.06z" fill="#00ca29"></path><path d="M203.28,207.26c-0.204,-2.344 -1.758,-4.352 -3.976,-5.137l-13.034,-4.611l-20.521,1.758l-1.188,9.768l1.013,5.966l38.09,-3.333z" fill="#ffffff"></path><path d="M69.303,225.427c-0.498,0 -0.981,-0.186 -1.351,-0.525c-0.414,-0.379 -0.649,-0.914 -0.649,-1.475v-4.79c0,-3.053 1.777,-5.883 4.529,-7.208l12.882,-6.205c0.221,-0.107 0.46,-0.172 0.706,-0.191l17.466,-1.422c0.923,-0.086 1.786,0.5 2.068,1.387l2.881,9.062c0.063,0.196 0.094,0.4 0.094,0.606v5.557c0,1.037 -0.792,1.902 -1.826,1.992c-0.132,0.011 -36.668,3.212 -36.8,3.212zM86.114,208.99l-12.547,6.043c-1.375,0.663 -2.264,2.077 -2.264,3.604v2.607l32.626,-2.854v-3.414l-2.305,-7.25zM105.929,220.223h0.01z" fill="#bcbcbc"></path><path d="M80.875,209.41c-0.5,0 -0.985,-0.188 -1.355,-0.529c-0.411,-0.379 -0.645,-0.912 -0.645,-1.471v-47.267c0,-1.476 0.368,-2.943 1.063,-4.243l21.086,-39.444c0.348,-0.651 1.026,-1.057 1.764,-1.057h55.62c0.581,0 1.133,0.253 1.514,0.692l25.406,29.408c1.217,1.409 1.958,3.132 2.144,4.983l4.674,46.497c0.054,0.533 -0.108,1.065 -0.451,1.477c-0.342,0.412 -0.835,0.67 -1.368,0.716l-27.084,2.32c-0.534,0.046 -1.065,-0.125 -1.474,-0.475c-0.407,-0.35 -0.657,-0.848 -0.693,-1.384l-2.754,-41.124l-27.133,-19.605l-23.259,23.135v43.329c0,1.042 -0.799,1.909 -1.838,1.993l-25.054,2.041c-0.055,0.006 -0.109,0.008 -0.163,0.008zM103.986,119.398l-20.521,38.387c-0.386,0.722 -0.59,1.537 -0.59,2.357v45.098l21.054,-1.714v-42.317c0,-0.532 0.212,-1.042 0.589,-1.418l25.054,-24.92c0.696,-0.691 1.787,-0.777 2.582,-0.203l29.271,21.15c0.482,0.349 0.784,0.894 0.824,1.487l2.681,40.028l23.032,-1.973l-4.471,-44.478c-0.104,-1.029 -0.516,-1.986 -1.192,-2.769l-24.808,-28.716h-53.505z" fill="#bcbcbc"></path><path d="M165.572,217.004c-0.965,0 -1.805,-0.696 -1.97,-1.665l-1.013,-5.965c-0.032,-0.19 -0.037,-0.385 -0.014,-0.576l1.188,-9.769c0.114,-0.94 0.872,-1.671 1.814,-1.751l20.521,-1.758c0.287,-0.024 0.57,0.012 0.838,0.107l13.034,4.611c2.95,1.043 5.031,3.731 5.302,6.849v0l0.384,4.412c0.096,1.1 -0.718,2.069 -1.818,2.166l-38.09,3.333c-0.059,0.004 -0.118,0.006 -0.176,0.006zM166.581,208.991l0.656,3.86l34.261,-2.998l-0.211,-2.42c-0.136,-1.559 -1.176,-2.903 -2.651,-3.425l-12.626,-4.466l-18.472,1.582z" fill="#bcbcbc"></path><path d="M158.407,119.398h-55.62c-1.082,0 -1.968,-0.861 -1.999,-1.942l-1.035,-35.945h-25.707l-37.119,10.743c-1.021,0.293 -2.09,-0.257 -2.442,-1.256l-6.644,-18.84c-0.363,-1.029 0.167,-2.159 1.189,-2.54c2.853,-1.061 7.018,-2.613 13.189,-4.914l24.835,-9.254c2.25,-0.838 4.601,-1.38 6.986,-1.61l25.708,-2.477c1.072,-0.115 1.074,-0.114 24.134,-0.109l30.77,0.005c6.201,0 9.113,0.905 23.11,5.252c2.852,0.886 6.176,1.918 10.097,3.121v0c3.377,1.035 6.601,2.521 9.583,4.417l31.172,19.817c0.877,0.558 1.181,1.694 0.7,2.614l-8.782,16.801c-0.25,0.479 -0.683,0.836 -1.201,0.99c-0.517,0.154 -1.076,0.093 -1.546,-0.17l-29.799,-16.635l-26.583,-4.613l-0.997,34.604c-0.031,1.081 -0.917,1.941 -1.999,1.941zM104.731,115.398h51.733l1.007,-34.969c0.017,-0.58 0.284,-1.124 0.733,-1.491c0.449,-0.367 1.038,-0.519 1.607,-0.422l29.193,5.066c0.222,0.039 0.436,0.114 0.633,0.225l28.301,15.798l6.979,-13.35l-29.622,-18.831c-2.679,-1.703 -5.575,-3.038 -8.609,-3.968v0c-3.926,-1.204 -7.255,-2.238 -10.111,-3.125c-13.837,-4.298 -16.33,-5.072 -21.924,-5.072l-30.771,-0.005c-24.162,-0.006 -22.816,-0.006 -23.972,0.113l-25.486,2.454c-2.04,0.197 -4.049,0.66 -5.974,1.376l-24.834,9.254c-4.958,1.848 -8.622,3.213 -11.35,4.229l5.362,15.205l35.581,-10.295c0.423,-0.122 28.048,-0.079 28.49,-0.079c1.082,0 1.968,0.861 1.999,1.942z" fill="#bcbcbc"></path><path d="M235.043,112.977c-0.291,0 -0.584,-0.026 -0.878,-0.079l-7.19,-1.302c-1.572,-0.285 -2.923,-1.314 -3.616,-2.754l-4.473,-9.312c-0.273,-0.569 -0.262,-1.233 0.03,-1.793l6.853,-13.11c0.291,-0.556 0.825,-0.943 1.443,-1.046c0.617,-0.105 1.25,0.089 1.705,0.521l12.439,11.79v0c1.41,1.337 1.919,3.39 1.296,5.231l-2.861,8.457c-0.691,2.047 -2.643,3.397 -4.748,3.397zM222.925,98.702l4.039,8.407c0.138,0.288 0.409,0.494 0.723,0.551l7.19,1.302c0.485,0.084 0.968,-0.197 1.125,-0.663l2.861,-8.458c0.125,-0.368 0.023,-0.779 -0.259,-1.046l-10.517,-9.968z" fill="#bcbcbc"></path><path d="M26.256,99.621c-0.615,0 -1.236,-0.113 -1.831,-0.349l-6.471,-2.563c-1.602,-0.635 -2.75,-2.025 -3.07,-3.718l-1.713,-9.043c-0.371,-1.96 0.456,-3.949 2.106,-5.068l13.328,-9.041c0.513,-0.349 1.159,-0.438 1.748,-0.245c0.589,0.194 1.055,0.65 1.261,1.235l5.676,16.094c0.224,0.636 0.113,1.341 -0.296,1.877l-6.75,8.855c-0.965,1.265 -2.459,1.966 -3.988,1.966zM28.704,74.604l-11.182,7.585c-0.33,0.224 -0.495,0.622 -0.421,1.014l1.712,9.042c0.064,0.338 0.294,0.617 0.615,0.744l6.47,2.563c0.415,0.166 0.894,0.032 1.163,-0.323l6.096,-7.997z" fill="#bcbcbc"></path><path d="M161.834,29.653h-25.61v-8.266h25.61c2.283,0 4.133,1.85 4.133,4.133v0c0,2.282 -1.85,4.133 -4.133,4.133z" fill="#ffffff"></path><path d="M161.834,31.652h-25.61c-1.104,0 -2,-0.896 -2,-2v-8.266c0,-1.104 0.896,-2 2,-2h25.61c3.382,0 6.133,2.751 6.133,6.133c0,3.382 -2.751,6.133 -6.133,6.133zM138.225,27.652h23.61c1.176,0 2.133,-0.957 2.133,-2.133c0,-1.176 -0.957,-2.133 -2.133,-2.133h-23.61z" fill="#bcbcbc"></path><path d="M152.496,31.825v-2.05c0,-11.985 -9.804,-21.701 -21.899,-21.701v0c-12.094,0 -21.899,9.716 -21.899,21.701v2.05c-3.803,-0.077 -6.819,2.952 -6.819,6.614c0,3.91 3.413,7.003 7.398,6.581c2.26,9.601 10.945,16.755 21.32,16.755c10.376,0 19.06,-7.154 21.32,-16.755c3.979,0.421 7.398,-2.666 7.398,-6.581c0,-3.664 -3.019,-6.691 -6.819,-6.614z" fill="#f9cfcf"></path><path d="M130.597,63.775c-10.623,0 -19.801,-6.813 -22.85,-16.755c-1.853,-0.174 -3.618,-0.935 -5.015,-2.192c-1.813,-1.631 -2.853,-3.96 -2.853,-6.389c0,-2.325 0.918,-4.505 2.585,-6.139c1.185,-1.161 2.645,-1.94 4.234,-2.281v-0.245c0,-13.069 10.721,-23.701 23.898,-23.701c13.177,0 23.899,10.632 23.899,23.701v0.245c1.59,0.341 3.049,1.121 4.234,2.282c1.667,1.633 2.585,3.813 2.585,6.138c0,2.429 -1.04,4.757 -2.852,6.388c-1.397,1.257 -3.163,2.019 -5.016,2.192c-3.047,9.943 -12.225,16.756 -22.849,16.756zM109.279,43.021c0.918,0 1.731,0.63 1.945,1.542c2.108,8.957 10.075,15.212 19.373,15.212c9.298,0 17.265,-6.256 19.374,-15.212c0.231,-0.98 1.162,-1.637 2.157,-1.531c1.36,0.139 2.657,-0.275 3.66,-1.178c0.985,-0.887 1.528,-2.1 1.528,-3.415c0,-1.241 -0.492,-2.406 -1.384,-3.281c-0.904,-0.885 -2.098,-1.351 -3.395,-1.333c-0.542,0.026 -1.056,-0.195 -1.44,-0.571c-0.384,-0.376 -0.6,-0.891 -0.6,-1.429v-2.051c0,-10.863 -8.927,-19.701 -19.899,-19.701c-10.972,0 -19.898,8.838 -19.898,19.701v2.051c0,0.538 -0.216,1.052 -0.6,1.429c-0.384,0.375 -0.902,0.595 -1.44,0.571c-1.307,-0.016 -2.491,0.447 -3.395,1.333c-0.893,0.875 -1.384,2.041 -1.384,3.282c0,1.315 0.543,2.528 1.529,3.416c1.003,0.902 2.301,1.316 3.659,1.177c0.069,-0.009 0.14,-0.012 0.21,-0.012z" fill="#bcbcbc"></path><path d="M143.071,45.461v0c-1.677,0 -3.036,-1.359 -3.036,-3.036v-3.238c0,-1.677 1.359,-3.036 3.036,-3.036v0c1.677,0 3.036,1.359 3.036,3.036v3.238c0,1.677 -1.359,3.036 -3.036,3.036z" fill="#bcbcbc"></path><path d="M118.124,45.461v0c-1.677,0 -3.036,-1.359 -3.036,-3.036v-3.238c0,-1.677 1.359,-3.036 3.036,-3.036v0c1.677,0 3.036,1.359 3.036,3.036v3.238c0,1.677 -1.36,3.036 -3.036,3.036z" fill="#bcbcbc"></path><path d="M130.609,55.296c-0.001,0 0,0 0,0c-2.458,0 -4.748,-0.887 -6.282,-2.434c-0.583,-0.588 -0.58,-1.538 0.009,-2.121c0.588,-0.583 1.538,-0.58 2.121,0.009c0.96,0.968 2.513,1.546 4.152,1.546c1.649,0 3.154,-0.563 4.129,-1.546c0.583,-0.589 1.533,-0.592 2.121,-0.009c0.588,0.583 0.592,1.533 0.009,2.121c-1.535,1.547 -3.816,2.434 -6.259,2.434z" fill="#bcbcbc"></path><path d="M152.386,29.653h-43.681v-10.903c0,-8.837 7.163,-16 16,-16h11.681c8.837,0 16,7.163 16,16z" fill="#ffffff"></path><path d="M152.386,31.652h-43.681c-1.104,0 -2,-0.896 -2,-2v-10.902c0,-9.925 8.075,-18 18,-18h11.681c9.925,0 18,8.075 18,18v10.902c0,1.105 -0.895,2 -2,2zM110.705,27.652h39.681v-8.902c0,-7.72 -6.28,-14 -14,-14h-11.681c-7.72,0 -14,6.28 -14,14z" fill="#bcbcbc"></path><path d="M138.097,29.653h-15v-5.266c0,-1.657 1.343,-3 3,-3h9c1.657,0 3,1.343 3,3z" fill="#f9cfcf"></path><path d="M138.097,31.652h-15c-1.104,0 -2,-0.896 -2,-2v-5.266c0,-2.757 2.243,-5 5,-5h9c2.757,0 5,2.243 5,5v5.266c0,1.105 -0.895,2 -2,2zM125.097,27.652h11v-3.266c0,-0.551 -0.449,-1 -1,-1h-9c-0.551,0 -1,0.449 -1,1z" fill="#bcbcbc"></path><path d="M60.362,239.778c-5.27,0 -9.64,-0.608 -14.196,-1.242l-2.256,-0.311c-4.771,-0.646 -8.208,-5.06 -7.663,-9.84c0.28,-2.456 1.522,-4.626 3.498,-6.112c1.975,-1.484 4.405,-2.076 6.837,-1.665c0.001,0 0.004,0 0.004,0c0.107,0.019 0.211,0.045 0.311,0.079c9.726,2.015 16.796,1.083 17.796,1.135c6.824,-0.597 135.995,-11.898 142.971,-12.508c7.367,-0.645 12.428,-2.469 16.494,-3.935l1.132,-0.407v0c2.326,-0.828 4.819,-0.669 7.021,0.45c2.203,1.12 3.803,3.042 4.506,5.413c1.367,4.613 -1.25,9.557 -5.833,11.02l-6.332,2.021c-5.144,1.642 -10.479,2.713 -15.859,3.184v0c0,0 -142.126,12.434 -142.13,12.435c-2.261,0.199 -4.343,0.283 -6.301,0.283zM45.084,224.482c-1.054,0 -2.073,0.339 -2.936,0.988c-1.088,0.818 -1.773,2.014 -1.927,3.367c-0.301,2.635 1.594,5.067 4.224,5.423l2.272,0.313c6.278,0.874 11.701,1.628 19.597,0.938l12.397,-1.085c0.001,0 129.731,-11.35 129.733,-11.35c5.086,-0.445 10.129,-1.458 14.991,-3.01l6.332,-2.021c2.525,-0.806 3.968,-3.531 3.214,-6.073c-0.387,-1.307 -1.27,-2.367 -2.483,-2.984c-1.212,-0.617 -2.585,-0.705 -3.867,-0.248l-1.117,0.401c-4.285,1.544 -9.617,3.467 -17.502,4.156c-0.775,0.068 -142.158,12.439 -142.971,12.508l-0.001,-0.014l0.001,0.014c-4.978,0.437 -9.932,0.075 -13.21,-0.303c-3.26,-0.376 -4.995,-0.672 -5.966,-0.959c-0.261,-0.04 -0.522,-0.061 -0.781,-0.061z" fill="#bcbcbc"></path><path d="M78.936,255.25c-2.438,0 -4.777,-0.848 -6.667,-2.434c-2.128,-1.786 -3.434,-4.294 -3.676,-7.062c-0.5,-5.714 3.742,-10.769 9.456,-11.269c2.768,-0.246 5.464,0.608 7.593,2.394c2.128,1.786 3.434,4.294 3.676,7.062c0.243,2.768 -0.607,5.464 -2.394,7.593c-1.787,2.129 -4.294,3.434 -7.062,3.676c-0.311,0.027 -0.619,0.04 -0.926,0.04zM78.959,238.445c-0.186,0 -0.374,0.008 -0.563,0.024c-1.704,0.149 -3.247,0.953 -4.346,2.263c-1.099,1.31 -1.623,2.969 -1.474,4.673c0.149,1.704 0.953,3.248 2.263,4.347c1.31,1.099 2.964,1.623 4.673,1.473c1.704,-0.149 3.248,-0.953 4.347,-2.263c1.099,-1.31 1.622,-2.969 1.473,-4.673v0c-0.291,-3.327 -3.093,-5.844 -6.373,-5.844z" fill="#bcbcbc"></path><path d="M197.61,244.868c-5.33,0 -9.882,-4.088 -10.354,-9.496c-0.243,-2.768 0.607,-5.464 2.394,-7.593c1.786,-2.129 4.294,-3.435 7.062,-3.676c2.769,-0.243 5.465,0.608 7.593,2.394c2.128,1.786 3.434,4.294 3.676,7.062c0.5,5.713 -3.741,10.769 -9.456,11.269c-0.307,0.027 -0.612,0.04 -0.915,0.04zM197.623,228.063c-0.186,0 -0.374,0.008 -0.563,0.024c-1.704,0.149 -3.247,0.953 -4.346,2.263c-1.1,1.31 -1.623,2.97 -1.474,4.673c0.149,1.704 0.953,3.247 2.263,4.346c1.31,1.099 2.968,1.62 4.673,1.474c3.517,-0.308 6.127,-3.419 5.82,-6.936v0c-0.291,-3.327 -3.094,-5.844 -6.373,-5.844z" fill="#bcbcbc"></path><g fill="#bcbcbc"><path d="M101.697,81.511c-1.104,0 -2,-0.896 -2,-2v-9.761c0,-1.104 0.896,-2 2,-2c1.104,0 2,0.896 2,2v9.761c0,1.105 -0.896,2 -2,2z"></path></g><g fill="#bcbcbc"><path d="M159.47,82.487c-1.104,0 -2,-0.896 -2,-2v-10.737c0,-1.104 0.896,-2 2,-2c1.104,0 2,0.896 2,2v10.737c0,1.105 -0.895,2 -2,2z"></path></g></g></g></svg>