<?xml version="1.0" encoding="utf-8"?>
<!-- Generator: Adobe Illustrator 28.3.0, SVG Export Plug-In . SVG Version: 6.00 Build 0)  -->
<svg version="1.1" id="Layer_1" xmlns="http://www.w3.org/2000/svg" xmlns:xlink="http://www.w3.org/1999/xlink" x="0px" y="0px"
	 viewBox="0 0 64 64" style="enable-background:new 0 0 64 64;" xml:space="preserve">
<style type="text/css">
	.st0{display:none;}
	.st1{display:inline;fill:#DDDDDD;fill-opacity:0;}
	.st2{fill:#F9CFCF;}
	.st3{fill:#197512;}
	.st4{fill:#00CA29;}
	.st5{fill:#EAF40E;}
	.st6{fill:#FFFFFF;}
	.st7{fill:#BCBCBC;}
</style>
<g class="st0">
	<path id="bgRectangle" class="st1" d="M0,64V0h64v64H0z"/>
</g>
<g>
	<g>
		<path class="st2" d="M49.1,27.3l-1.9-1.8l-1,2l0.7,1.4c0.1,0.1,0.2,0.2,0.3,0.3l1.1,0.2c0.2,0,0.4-0.1,0.5-0.3l0.4-1.3
			C49.2,27.6,49.2,27.5,49.1,27.3z"/>
		<path class="st2" d="M17,23.4L17,23.4l-2,1.4c-0.2,0.1-0.2,0.3-0.2,0.5l0.3,1.4c0,0.2,0.1,0.3,0.3,0.3l1,0.4
			c0.2,0.1,0.4,0,0.5-0.1l1-1.3L17,23.4z"/>
		<path class="st3" d="M46.9,44c-0.7,0.2-1.5,0.6-2.8,0.7c-0.5,0-22.1,1.9-21.8,1.9c-1.5,0.1-3-0.2-2.8-0.2
			c-0.6-0.1-1.2,0.3-1.2,0.9l0,0c-0.1,0.6,0.3,1.1,0.9,1.2c1.1,0.2,2,0.3,3.4,0.2c0.5,0,22-1.9,21.6-1.9c0.8-0.1,1.6-0.2,2.3-0.5
			l1-0.3c0.5-0.2,0.9-0.8,0.7-1.3l0,0C48.1,44.1,47.5,43.8,46.9,44z"/>
		<circle class="st4" cx="24.5" cy="49.8" r="1.3"/>
		<circle class="st4" cx="42.6" cy="48.2" r="1.3"/>
		<path class="st5" d="M41,21.9c-3.5-1.1-3.9-1.3-5-1.3c-8.7,0-8.1,0-8.4,0L23.8,21c-0.3,0-0.7,0.1-1,0.2c-3.3,1.2-4.9,1.8-5.8,2.2
			l1,2.9l5.7-1.6H28l0.2,5.8h4.2h0.1h4.2l0.2-5.6l4.4,0.8l4.6,2.6l1.3-2.6l-4.7-3C42,22.2,41.5,22,41,21.9z"/>
		<path class="st6" d="M28.6,46v-0.8l-0.4-1.4L25.5,44l-2,0.9c-0.3,0.2-0.5,0.5-0.5,0.8v0.7L28.6,46z"/>
		<path class="st4" d="M41.5,42.5l-0.7-7.1c0-0.2-0.1-0.4-0.3-0.6l-3.9-4.5h-4.2l0,0h-4.3l-3.2,6c-0.1,0.2-0.1,0.3-0.1,0.5v7.2
			l3.8-0.3v-6.7l3.8-3.8l4.5,3.2l0.4,6.4L41.5,42.5z"/>
		<path class="st6" d="M43.5,44.1c0-0.4-0.3-0.7-0.6-0.8l-2-0.7l-3.1,0.3l-0.2,1.5l0.2,0.9l5.8-0.5L43.5,44.1z"/>
		<path class="st7" d="M23.1,46.8c-0.1,0-0.1,0-0.2-0.1c-0.1-0.1-0.1-0.1-0.1-0.2v-0.7c0-0.5,0.3-0.9,0.7-1.1l2-0.9c0,0,0.1,0,0.1,0
			l2.7-0.2c0.1,0,0.3,0.1,0.3,0.2l0.4,1.4c0,0,0,0.1,0,0.1V46c0,0.2-0.1,0.3-0.3,0.3C28.6,46.3,23.1,46.8,23.1,46.8z M25.6,44.3
			l-1.9,0.9c-0.2,0.1-0.3,0.3-0.3,0.5v0.4l5-0.4v-0.5L28,44.1L25.6,44.3z M28.6,46L28.6,46L28.6,46z"/>
		<path class="st7" d="M24.8,44.4c-0.1,0-0.2,0-0.2-0.1c-0.1-0.1-0.1-0.1-0.1-0.2v-7.2c0-0.2,0.1-0.4,0.2-0.6l3.2-6
			c0.1-0.1,0.2-0.2,0.3-0.2h8.5c0.1,0,0.2,0,0.2,0.1l3.9,4.5c0.2,0.2,0.3,0.5,0.3,0.8l0.7,7.1c0,0.1,0,0.2-0.1,0.2
			c-0.1,0.1-0.1,0.1-0.2,0.1l-4.1,0.4c-0.1,0-0.2,0-0.2-0.1C37.1,43.1,37,43,37,42.9l-0.4-6.3l-4.1-3l-3.5,3.5v6.6
			c0,0.2-0.1,0.3-0.3,0.3L24.8,44.4C24.8,44.4,24.8,44.4,24.8,44.4z M28.3,30.7l-3.1,5.8c-0.1,0.1-0.1,0.2-0.1,0.4v6.9l3.2-0.3v-6.4
			c0-0.1,0-0.2,0.1-0.2l3.8-3.8c0.1-0.1,0.3-0.1,0.4,0l4.5,3.2c0.1,0.1,0.1,0.1,0.1,0.2l0.4,6.1l3.5-0.3l-0.7-6.8
			c0-0.2-0.1-0.3-0.2-0.4l-3.8-4.4L28.3,30.7L28.3,30.7z"/>
		<path class="st7" d="M37.7,45.6c-0.1,0-0.3-0.1-0.3-0.3l-0.2-0.9c0,0,0-0.1,0-0.1l0.2-1.5c0-0.1,0.1-0.3,0.3-0.3l3.1-0.3
			c0,0,0.1,0,0.1,0l2,0.7c0.4,0.2,0.8,0.6,0.8,1l0,0l0.1,0.7c0,0.2-0.1,0.3-0.3,0.3L37.7,45.6C37.7,45.6,37.7,45.6,37.7,45.6z
			 M37.9,44.3l0.1,0.6l5.2-0.5l0-0.4c0-0.2-0.2-0.4-0.4-0.5l-1.9-0.7L38,43.1L37.9,44.3z"/>
		<path class="st7" d="M36.6,30.7h-8.5c-0.2,0-0.3-0.1-0.3-0.3l-0.2-5.5h-3.9l-5.7,1.6c-0.2,0-0.3,0-0.4-0.2l-1-2.9
			c-0.1-0.2,0-0.3,0.2-0.4c0.4-0.2,1.1-0.4,2-0.7l3.8-1.4c0.3-0.1,0.7-0.2,1.1-0.2l3.9-0.4c0.2,0,0.2,0,3.7,0l4.7,0
			c0.9,0,1.4,0.1,3.5,0.8c0.4,0.1,0.9,0.3,1.5,0.5l0,0c0.5,0.2,1,0.4,1.5,0.7l4.7,3c0.1,0.1,0.2,0.3,0.1,0.4l-1.3,2.6
			c0,0.1-0.1,0.1-0.2,0.2c-0.1,0-0.2,0-0.2,0l-4.5-2.5l-4-0.7l-0.2,5.3C36.9,30.6,36.8,30.7,36.6,30.7z M28.5,30.1h7.9l0.2-5.3
			c0-0.1,0-0.2,0.1-0.2c0.1-0.1,0.2-0.1,0.2-0.1l4.4,0.8c0,0,0.1,0,0.1,0l4.3,2.4l1.1-2l-4.5-2.9c-0.4-0.3-0.8-0.5-1.3-0.6l0,0
			c-0.6-0.2-1.1-0.3-1.5-0.5c-2.1-0.7-2.5-0.8-3.3-0.8l-4.7,0c-3.7,0-3.5,0-3.7,0l-3.9,0.4c-0.3,0-0.6,0.1-0.9,0.2l-3.8,1.4
			c-0.8,0.3-1.3,0.5-1.7,0.6l0.8,2.3l5.4-1.6c0.1,0,4.3,0,4.3,0c0.2,0,0.3,0.1,0.3,0.3L28.5,30.1z"/>
		<path class="st7" d="M48.3,29.7c0,0-0.1,0-0.1,0l-1.1-0.2c-0.2,0-0.4-0.2-0.6-0.4l-0.7-1.4c0-0.1,0-0.2,0-0.3l1-2
			c0-0.1,0.1-0.1,0.2-0.2c0.1,0,0.2,0,0.3,0.1l1.9,1.8l0,0c0.2,0.2,0.3,0.5,0.2,0.8L49,29.2C48.9,29.5,48.6,29.7,48.3,29.7z
			 M46.5,27.5l0.6,1.3c0,0,0.1,0.1,0.1,0.1l1.1,0.2c0.1,0,0.1,0,0.2-0.1l0.4-1.3c0-0.1,0-0.1,0-0.2L47.2,26L46.5,27.5z"/>
		<path class="st7" d="M16.5,27.7c-0.1,0-0.2,0-0.3-0.1l-1-0.4c-0.2-0.1-0.4-0.3-0.5-0.6l-0.3-1.4c-0.1-0.3,0.1-0.6,0.3-0.8l2-1.4
			c0.1-0.1,0.2-0.1,0.3,0c0.1,0,0.2,0.1,0.2,0.2l0.9,2.5c0,0.1,0,0.2,0,0.3l-1,1.3C17,27.6,16.7,27.7,16.5,27.7z M16.9,23.9L15.2,25
			c-0.1,0-0.1,0.1-0.1,0.2l0.3,1.4c0,0.1,0,0.1,0.1,0.1l1,0.4c0.1,0,0.1,0,0.2,0l0.9-1.2L16.9,23.9z"/>
		<path class="st6" d="M37.2,17h-3.9v-1.3h3.9c0.3,0,0.6,0.3,0.6,0.6l0,0C37.8,16.7,37.5,17,37.2,17z"/>
		<path class="st7" d="M37.2,17.3h-3.9c-0.2,0-0.3-0.1-0.3-0.3v-1.3c0-0.2,0.1-0.3,0.3-0.3h3.9c0.5,0,0.9,0.4,0.9,0.9
			C38.1,16.9,37.7,17.3,37.2,17.3z M33.6,16.7h3.6c0.2,0,0.3-0.1,0.3-0.3c0-0.2-0.1-0.3-0.3-0.3h-3.6V16.7z"/>
		<path class="st2" d="M35.7,17.4V17c0-1.8-1.5-3.3-3.3-3.3l0,0c-1.8,0-3.3,1.5-3.3,3.3v0.3c-0.6,0-1,0.4-1,1c0,0.6,0.5,1.1,1.1,1
			c0.3,1.5,1.7,2.6,3.2,2.6c1.6,0,2.9-1.1,3.2-2.6c0.6,0.1,1.1-0.4,1.1-1C36.8,17.8,36.3,17.3,35.7,17.4z"/>
		<path class="st7" d="M32.4,22.2c-1.6,0-3-1-3.5-2.6c-0.3,0-0.6-0.1-0.8-0.3c-0.3-0.2-0.4-0.6-0.4-1c0-0.4,0.1-0.7,0.4-0.9
			c0.2-0.2,0.4-0.3,0.6-0.3v0c0-2,1.6-3.6,3.6-3.6c2,0,3.6,1.6,3.6,3.6v0c0.2,0.1,0.5,0.2,0.6,0.3c0.3,0.2,0.4,0.6,0.4,0.9
			c0,0.4-0.2,0.7-0.4,1c-0.2,0.2-0.5,0.3-0.8,0.3C35.4,21.2,34,22.2,32.4,22.2z M29.1,19.1c0.1,0,0.3,0.1,0.3,0.2
			c0.3,1.4,1.5,2.3,3,2.3s2.6-1,3-2.3c0-0.1,0.2-0.2,0.3-0.2c0.2,0,0.4,0,0.6-0.2c0.2-0.1,0.2-0.3,0.2-0.5c0-0.2-0.1-0.4-0.2-0.5
			c-0.1-0.1-0.3-0.2-0.5-0.2c-0.1,0-0.2,0-0.2-0.1c-0.1-0.1-0.1-0.1-0.1-0.2V17c0-1.7-1.4-3-3-3c-1.7,0-3,1.3-3,3v0.3
			c0,0.1,0,0.2-0.1,0.2c-0.1,0.1-0.1,0.1-0.2,0.1c-0.2,0-0.4,0.1-0.5,0.2c-0.1,0.1-0.2,0.3-0.2,0.5c0,0.2,0.1,0.4,0.2,0.5
			C28.7,19,28.9,19.1,29.1,19.1C29.1,19.1,29.1,19.1,29.1,19.1z"/>
		<path class="st7" d="M34.3,19.4L34.3,19.4c-0.3,0-0.5-0.2-0.5-0.5v-0.5c0-0.3,0.2-0.5,0.5-0.5l0,0c0.3,0,0.5,0.2,0.5,0.5V19
			C34.8,19.2,34.6,19.4,34.3,19.4z"/>
		<path class="st7" d="M30.5,19.4L30.5,19.4c-0.3,0-0.5-0.2-0.5-0.5v-0.5c0-0.3,0.2-0.5,0.5-0.5l0,0c0.3,0,0.5,0.2,0.5,0.5V19
			C31,19.2,30.8,19.4,30.5,19.4z"/>
		<path class="st7" d="M32.4,20.9C32.4,20.9,32.4,20.9,32.4,20.9c-0.4,0-0.7-0.1-1-0.4c-0.1-0.1-0.1-0.2,0-0.3
			c0.1-0.1,0.2-0.1,0.3,0c0.1,0.1,0.4,0.2,0.6,0.2c0.3,0,0.5-0.1,0.6-0.2c0.1-0.1,0.2-0.1,0.3,0s0.1,0.2,0,0.3
			C33.1,20.8,32.8,20.9,32.4,20.9z"/>
		<path class="st6" d="M35.7,17h-6.7v-1.7c0-1.3,1.1-2.4,2.4-2.4h1.8c1.3,0,2.4,1.1,2.4,2.4V17z"/>
		<path class="st7" d="M35.7,17.3h-6.7c-0.2,0-0.3-0.1-0.3-0.3v-1.7c0-1.5,1.2-2.7,2.7-2.7h1.8c1.5,0,2.7,1.2,2.7,2.7V17
			C36,17.2,35.9,17.3,35.7,17.3z M29.4,16.7h6v-1.4c0-1.2-1-2.1-2.1-2.1h-1.8c-1.2,0-2.1,1-2.1,2.1V16.7z"/>
		<path class="st2" d="M33.5,17h-2.3v-0.8c0-0.3,0.2-0.5,0.5-0.5h1.4c0.3,0,0.5,0.2,0.5,0.5V17z"/>
		<path class="st7" d="M33.5,17.3h-2.3c-0.2,0-0.3-0.1-0.3-0.3v-0.8c0-0.4,0.3-0.8,0.8-0.8h1.4c0.4,0,0.8,0.3,0.8,0.8V17
			C33.8,17.2,33.7,17.3,33.5,17.3z M31.6,16.7h1.7v-0.5c0-0.1-0.1-0.2-0.2-0.2h-1.4c-0.1,0-0.2,0.1-0.2,0.2V16.7z"/>
		<path class="st7" d="M21.7,49c-0.8,0-1.5-0.1-2.2-0.2l-0.3,0c-0.7-0.1-1.2-0.8-1.2-1.5c0-0.4,0.2-0.7,0.5-0.9
			c0.3-0.2,0.7-0.3,1-0.3c0,0,0,0,0,0c0,0,0,0,0,0c1.5,0.3,2.6,0.2,2.7,0.2c1-0.1,20.7-1.8,21.8-1.9c1.1-0.1,1.9-0.4,2.5-0.6
			l0.2-0.1l0,0c0.4-0.1,0.7-0.1,1.1,0.1c0.3,0.2,0.6,0.5,0.7,0.8c0.2,0.7-0.2,1.5-0.9,1.7l-1,0.3c-0.8,0.3-1.6,0.4-2.4,0.5l0,0
			c0,0-21.6,1.9-21.6,1.9C22.3,49,22,49,21.7,49z M19.4,46.7c-0.2,0-0.3,0.1-0.4,0.2c-0.2,0.1-0.3,0.3-0.3,0.5
			c0,0.4,0.2,0.8,0.6,0.8l0.3,0c1,0.1,1.8,0.2,3,0.1l1.9-0.2c0,0,19.8-1.7,19.8-1.7c0.8-0.1,1.5-0.2,2.3-0.5l1-0.3
			c0.4-0.1,0.6-0.5,0.5-0.9c-0.1-0.2-0.2-0.4-0.4-0.5c-0.2-0.1-0.4-0.1-0.6,0l-0.2,0.1c-0.7,0.2-1.5,0.5-2.7,0.6
			c-0.1,0-21.6,1.9-21.8,1.9l0,0l0,0c-0.8,0.1-1.5,0-2,0c-0.5-0.1-0.8-0.1-0.9-0.1C19.5,46.7,19.4,46.7,19.4,46.7z"/>
		<path class="st7" d="M24.5,51.4c-0.4,0-0.7-0.1-1-0.4c-0.3-0.3-0.5-0.7-0.6-1.1c-0.1-0.9,0.6-1.6,1.4-1.7c0.4,0,0.8,0.1,1.2,0.4
			c0.3,0.3,0.5,0.7,0.6,1.1c0,0.4-0.1,0.8-0.4,1.2c-0.3,0.3-0.7,0.5-1.1,0.6C24.6,51.4,24.6,51.4,24.5,51.4z M24.5,48.8
			C24.5,48.8,24.5,48.8,24.5,48.8c-0.3,0-0.6,0.1-0.7,0.3s-0.2,0.5-0.2,0.7c0,0.3,0.1,0.5,0.3,0.7c0.2,0.2,0.5,0.2,0.7,0.2
			c0.3,0,0.5-0.1,0.7-0.3s0.2-0.5,0.2-0.7l0,0C25.5,49.2,25,48.8,24.5,48.8z"/>
		<path class="st7" d="M42.6,49.8c-0.8,0-1.5-0.6-1.6-1.4c0-0.4,0.1-0.8,0.4-1.2c0.3-0.3,0.7-0.5,1.1-0.6c0.4,0,0.8,0.1,1.2,0.4
			c0.3,0.3,0.5,0.7,0.6,1.1c0.1,0.9-0.6,1.6-1.4,1.7C42.7,49.8,42.6,49.8,42.6,49.8z M42.6,47.2C42.6,47.2,42.5,47.2,42.6,47.2
			c-0.3,0-0.6,0.1-0.7,0.3c-0.2,0.2-0.2,0.5-0.2,0.7c0,0.3,0.1,0.5,0.3,0.7s0.5,0.2,0.7,0.2c0.5,0,0.9-0.5,0.9-1.1l0,0
			C43.5,47.6,43.1,47.2,42.6,47.2z"/>
		<g>
			<path class="st7" d="M28,24.9c-0.2,0-0.3-0.1-0.3-0.3v-1.5c0-0.2,0.1-0.3,0.3-0.3s0.3,0.1,0.3,0.3v1.5
				C28.3,24.8,28.2,24.9,28,24.9z"/>
		</g>
		<g>
			<path class="st7" d="M36.8,25.1c-0.2,0-0.3-0.1-0.3-0.3v-1.6c0-0.2,0.1-0.3,0.3-0.3s0.3,0.1,0.3,0.3v1.6
				C37.1,24.9,37,25.1,36.8,25.1z"/>
		</g>
	</g>
</g>
</svg>
